<svg width="44" height="35" viewBox="0 0 44 35" fill="none" xmlns="http://www.w3.org/2000/svg">
<path d="M44 17.8889C44 22.614 41.5376 26.8918 37.5564 29.9883C33.5751 33.0848 28.0751 35.0001 22 35.0001C15.9249 35.0001 10.4249 33.0848 6.44365 29.9883C2.46243 26.8918 0 22.614 0 17.8889C0 13.1638 2.46243 8.88606 6.44365 5.78956C10.4249 2.69306 15.9249 0.777832 22 0.777832C28.0751 0.777832 33.5751 2.69306 37.5564 5.78956C41.5376 8.88606 44 13.1638 44 17.8889Z" fill="#2196F3"/>
<g clip-path="url(#clip0)">
<path d="M32 13.0656C31.2563 13.3193 30.4637 13.4875 29.6375 13.5692C30.4875 13.1745 31.1363 12.5542 31.4412 11.8066C30.6488 12.1741 29.7738 12.4336 28.8412 12.5785C28.0887 11.9553 27.0162 11.5693 25.8462 11.5693C23.5763 11.5693 21.7487 13.0024 21.7487 14.7592C21.7487 15.012 21.7762 15.255 21.8438 15.4864C18.435 15.3571 15.4188 14.0864 13.3925 12.1507C13.0387 12.6281 12.8313 13.1745 12.8313 13.7627C12.8313 14.8671 13.5625 15.8461 14.6525 16.4129C13.9937 16.4032 13.3475 16.2545 12.8 16.0202C12.8 16.0299 12.8 16.0425 12.8 16.0552C12.8 17.6049 14.2212 18.8921 16.085 19.1886C15.7512 19.2596 15.3875 19.2936 15.01 19.2936C14.7475 19.2936 14.4825 19.282 14.2337 19.2392C14.765 20.5021 16.2725 21.4306 18.065 21.4607C16.67 22.3095 14.8988 22.8209 12.9813 22.8209C12.645 22.8209 12.3225 22.8092 12 22.7771C13.8162 23.6881 15.9688 24.2082 18.29 24.2082C25.835 24.2082 29.96 19.3471 29.96 15.1335C29.96 14.9925 29.9538 14.8564 29.945 14.7213C30.7588 14.2721 31.4425 13.7111 32 13.0656Z" fill="white"/>
</g>
<defs>
<clipPath id="clip0">
<rect width="20" height="15.5556" fill="white" transform="translate(12 10.1111)"/>
</clipPath>
</defs>
</svg>
